<svg xmlns="http://www.w3.org/2000/svg" width="451" height="66"><defs><linearGradient id="a" x1="99.87%" x2="-.155%" y1="50.003%" y2="50.003%"><stop offset="0%" stop-color="#D81222"/><stop offset="100%" stop-color="#960B1A"/></linearGradient></defs><g fill="none"><path fill="#000" d="M55.8 64.6h-7.2V29.8h7.2v34.8zm27.1-24.3c1.7 1.4 2.5 3.7 2.5 6.9v17.4h-6.9V49c0-1.4-.2-2.4-.5-3.1-.7-1.3-1.9-2-3.8-2-2.3 0-3.8 1-4.7 2.9-.4 1-.7 2.3-.7 3.9v14h-6.7V38.9h6.5v3.8c.9-1.3 1.7-2.3 2.4-2.9 1.4-1 3.1-1.6 5.3-1.6 2.7 0 4.9.7 6.6 2.1zm5.8 3.6v-4.8h3.6v-7.2H99v7.2h4.2v4.8H99v13.6c0 1.1.1 1.7.4 2 .3.3 1.1.4 2.5.4h1.4v5l-3.4.1c-3.2.1-5.4-.4-6.5-1.7-.8-.8-1.1-2-1.1-3.6V43.9h-3.6zm35.2-4.5c1.8.8 3.3 2.1 4.5 3.8 1.1 1.5 1.7 3.3 2.1 5.3.2 1.2.3 2.9.2 5.1h-18.8c.1 2.6 1 4.4 2.7 5.4 1 .6 2.3 1 3.7 1 1.5 0 2.8-.4 3.7-1.2.5-.4 1-1 1.4-1.8h6.9c-.2 1.5-1 3.1-2.5 4.7-2.3 2.5-5.5 3.8-9.7 3.8-3.4 0-6.5-1.1-9.1-3.2-2.6-2.1-3.9-5.6-3.9-10.3 0-4.5 1.2-7.9 3.6-10.3 2.4-2.4 5.4-3.6 9.2-3.6 2.2.1 4.2.5 6 1.3zm-10.1 5.8c-1 1-1.6 2.3-1.8 4h11.6c-.1-1.8-.7-3.1-1.8-4.1-1.1-.9-2.4-1.4-4-1.4-1.7 0-3 .5-4 1.5zm35.1-6.9h.6v6.9c-.4 0-.8-.1-1.1-.1h-.8c-2.7 0-4.5.9-5.5 2.6-.5 1-.8 2.5-.8 4.6v12.3h-6.8V38.9h6.4v4.5c1-1.7 1.9-2.9 2.7-3.5 1.3-1.1 2.9-1.6 4.9-1.6.2-.1.3-.1.4 0zM163.6 49c1.3-.2 2.2-.4 2.7-.6 1-.4 1.5-1 1.5-1.9 0-1.1-.4-1.8-1.1-2.2-.7-.4-1.8-.6-3.3-.6-1.6 0-2.8.4-3.4 1.2-.5.6-.8 1.4-1 2.4h-6.5c.1-2.3.8-4.1 1.9-5.6 1.8-2.3 4.9-3.4 9.2-3.4 2.8 0 5.4.6 7.6 1.7 2.2 1.1 3.3 3.2 3.3 6.3v14.8c0 .9.2 1.5.4 1.8.2.3.6.6 1 .8v1h-7.3c-.2-.5-.3-1-.4-1.5-.1-.5-.1-1-.2-1.6-.9 1-2 1.9-3.2 2.6-1.5.8-3.1 1.3-5 1.3-2.3 0-4.3-.7-5.8-2s-2.3-3.2-2.3-5.7c0-3.2 1.2-5.5 3.7-6.9 1.4-.8 3.3-1.3 6-1.7l2.2-.2zm4.1 3.1c-.4.3-.9.5-1.3.7-.4.2-1 .3-1.8.5l-1.5.3c-1.4.3-2.5.6-3.1.9-1.1.6-1.6 1.6-1.6 2.9 0 1.2.3 2 1 2.5.6.5 1.4.8 2.4.8 1.5 0 2.8-.4 4.1-1.3 1.2-.9 1.9-2.4 1.9-4.7v-2.6h-.1zm27.9-4c-.1-1-.4-1.8-1-2.6-.8-1-1.9-1.6-3.5-1.6-2.3 0-3.8 1.1-4.7 3.4-.4 1.2-.7 2.8-.7 4.8 0 1.9.2 3.4.7 4.6.8 2.1 2.3 3.2 4.6 3.2 1.6 0 2.7-.4 3.4-1.3.7-.9 1.1-2 1.2-3.3h6.9c-.2 2.1-.9 4-2.2 5.8-2.1 2.9-5.2 4.4-9.4 4.4s-7.2-1.2-9.2-3.7c-2-2.5-2.9-5.7-2.9-9.6 0-4.4 1.1-7.9 3.2-10.3 2.2-2.5 5.1-3.7 9-3.7 3.2 0 5.9.7 7.9 2.2 2 1.5 3.3 4 3.7 7.7h-7zm9.1-4.2v-4.8h3.6v-7.2h6.7v7.2h4.2v4.8H215v13.6c0 1.1.1 1.7.4 2 .3.3 1.1.4 2.5.4h1.4v5l-3.3.1c-3.2.1-5.4-.4-6.5-1.7-.8-.8-1.1-2-1.1-3.6V43.9h-3.7zm25.8-8.1h-6.8v-6.2h6.8v6.2zm-6.9 3.1h6.8v25.8h-6.8V38.9zm28.8 0h7.2l-9.3 25.8h-7.1L234 38.9h7.6l5.4 19 5.4-19zm26.9.5c1.8.8 3.3 2.1 4.5 3.8 1.1 1.5 1.7 3.3 2.1 5.3.2 1.2.3 2.9.2 5.1h-18.8c.1 2.6 1 4.4 2.7 5.4 1 .6 2.3 1 3.7 1 1.5 0 2.8-.4 3.7-1.2.5-.4 1-1 1.4-1.8h6.9c-.2 1.5-1 3.1-2.5 4.7-2.3 2.5-5.5 3.8-9.7 3.8-3.4 0-6.5-1.1-9.1-3.2-2.6-2.1-3.9-5.6-3.9-10.3 0-4.5 1.2-7.9 3.6-10.3 2.4-2.4 5.4-3.6 9.2-3.6 2.2.1 4.2.5 6 1.3zm-10.1 5.8c-1 1-1.6 2.3-1.8 4H279c-.1-1.8-.7-3.1-1.8-4.1-1.1-.9-2.4-1.4-4-1.4-1.7 0-3 .5-4 1.5zm21.3-15.3h15c4.1 0 7 1.2 8.7 3.6 1 1.4 1.5 3.1 1.5 5 0 2.2-.6 4-1.9 5.4-.6.7-1.6 1.4-2.8 2 1.8.7 3.1 1.4 4 2.3 1.6 1.5 2.3 3.6 2.3 6.3 0 2.2-.7 4.3-2.1 6.1-2.1 2.7-5.5 4.1-10.1 4.1h-14.8V29.9h.2zm13.3 14.7c2 0 3.6-.3 4.7-.8 1.8-.9 2.6-2.4 2.6-4.7 0-2.3-.9-3.8-2.8-4.6-1.1-.4-2.6-.7-4.7-.7h-8.5v10.8h8.7zm1.6 16c2.9 0 5-.8 6.2-2.5.8-1.1 1.2-2.3 1.2-3.8 0-2.5-1.1-4.2-3.4-5.2-1.2-.5-2.8-.7-4.8-.7h-9.4v12.2h10.2zm17.1-21.3h4v4.4c.3-.9 1.1-1.9 2.4-3.1 1.3-1.2 2.8-1.8 4.5-1.8h.4c.2 0 .5 0 1 .1v4.5c-.3 0-.5-.1-.7-.1h-.7c-2.1 0-3.8.7-4.9 2.1-1.2 1.4-1.7 3-1.7 4.8v14.6h-4.3V39.3zm34.1 2.5c2.2 2.2 3.4 5.4 3.4 9.6 0 4.1-1 7.5-3 10.1-2 2.7-5 4-9.2 4-3.5 0-6.2-1.2-8.2-3.5-2-2.4-3.1-5.5-3.1-9.5 0-4.3 1.1-7.6 3.2-10.2 2.1-2.5 5-3.8 8.6-3.8 3.3.1 6 1.2 8.3 3.3zm-2.7 16.9c1-2.1 1.6-4.5 1.6-7.1 0-2.4-.4-4.3-1.1-5.8-1.2-2.3-3.2-3.5-6.1-3.5-2.6 0-4.4 1-5.6 3-1.2 2-1.8 4.4-1.8 7.2 0 2.7.6 4.9 1.8 6.7 1.2 1.8 3 2.7 5.6 2.7 2.7 0 4.6-1.1 5.6-3.2zm10.8-28.8h4.1v20.2l10.9-10.8h5.4l-9.7 9.4 10.3 15.9h-5.4l-8-12.9-3.5 3.4v9.5h-4.1V29.9zM403.4 40c1.7.8 3 1.9 3.8 3.3.8 1.3 1.4 2.8 1.7 4.5.3 1.2.4 3 .4 5.6h-18.4c.1 2.6.7 4.6 1.8 6.2 1.1 1.6 2.9 2.3 5.2 2.3 2.2 0 4-.7 5.3-2.2.7-.9 1.3-1.8 1.6-3h4.2c-.1.9-.5 2-1.1 3.1-.6 1.1-1.3 2.1-2.1 2.8-1.3 1.3-2.9 2.1-4.8 2.6-1 .3-2.2.4-3.5.4-3.1 0-5.8-1.1-8-3.4s-3.3-5.5-3.3-9.6 1.1-7.4 3.3-9.9c2.2-2.5 5.1-3.8 8.6-3.8 1.9-.2 3.6.3 5.3 1.1zm1.6 10c-.2-1.8-.6-3.3-1.2-4.4-1.2-2.1-3.1-3.1-5.8-3.1-1.9 0-3.6.7-4.9 2.1-1.3 1.4-2 3.2-2.1 5.4h14zm9.4-10.7h4v4.4c.3-.9 1.1-1.9 2.4-3.1 1.3-1.2 2.8-1.8 4.5-1.8h.4c.2 0 .5 0 1 .1v4.5c-.3 0-.5-.1-.7-.1h-.7c-2.1 0-3.8.7-4.9 2.1-1.2 1.4-1.7 3-1.7 4.8v14.6h-4.3V39.3zM433 56.7c.1 1.4.5 2.5 1.1 3.3 1.1 1.4 3 2.1 5.7 2.1 1.6 0 3-.3 4.3-1 1.2-.7 1.8-1.7 1.8-3.2 0-1.1-.5-1.9-1.5-2.5-.6-.3-1.9-.7-3.7-1.2l-3.4-.9c-2.2-.5-3.8-1.1-4.9-1.8-1.9-1.2-2.8-2.7-2.8-4.8 0-2.4.9-4.3 2.6-5.8 1.7-1.5 4.1-2.2 7.1-2.2 3.9 0 6.7 1.1 8.4 3.4 1.1 1.4 1.6 3 1.6 4.6h-4c-.1-1-.4-1.8-1-2.6-1-1.1-2.7-1.7-5.2-1.7-1.6 0-2.9.3-3.7.9-.8.6-1.3 1.4-1.3 2.4 0 1.1.6 2 1.7 2.6.6.4 1.6.7 2.8 1l2.9.7c3.1.7 5.2 1.5 6.3 2.2 1.7 1.1 2.5 2.8 2.5 5.1s-.9 4.2-2.6 5.8c-1.7 1.6-4.4 2.5-7.9 2.5-3.8 0-6.5-.9-8.1-2.6-1.6-1.7-2.4-3.8-2.6-6.4h3.9v.1z"/><path fill="url(#a)" d="M29.3 64.6H.9V33.4z"/><circle cx="25.3" cy="41" r="8.5" fill="#D81222"/><path fill="#D81222" d="M29.3.5L.9 33.4v31.2z"/></g></svg>