<svg xmlns="http://www.w3.org/2000/svg" width="150" height="22"><path d="M143.864 4.898a1.514 1.514 0 1 1-3.028-.002 1.514 1.514 0 0 1 3.028.002zm-1.513-1.261a1.26 1.26 0 1 0 0 2.52 1.26 1.26 0 0 0 0-2.52zm.655.941c0 .224-.234.432-.47.432.132.045.235.164.578.728h-.321c-.253-.429-.344-.691-.613-.691h-.173v.691h-.26v-1.63h.656c.494 0 .603.245.603.47m-.999.244h.354c.226 0 .369-.062.369-.248 0-.185-.144-.247-.369-.247h-.354v.495m-2.48 14.148h-16.635V3.513h16.349v2.769h-12.616v3.389h8.669v2.778h-8.669v3.596h12.902v2.925zM16.771 16.045H3.869v-3.596h8.668V9.671H3.869V6.282h12.616V3.513H.136V18.97h16.635v-2.925zm31.43-9.618h7.437V3.513H37.06v2.914h7.394V18.97h3.748V6.427zm52.869-2.914h9.867c6.037 0 9.286 2.636 9.286 7.709 0 3.055-1.375 5.097-3.619 6.473-1.56.985-3.748 1.274-6.623 1.274h-8.911V3.513zm8.38 12.386c4.752 0 7.054-.696 7.054-4.75 0-3.317-1.959-4.723-5.493-4.723h-6.151v9.473h4.59zM81.606 18.97h-3.748l9.069-15.457h3.692l9.225 15.457h-4.221l-1.929-3.071H83.479l-1.873 3.071zm3.475-6.011h7.055l-3.461-6.257-3.594 6.257zM61.784 18.97H58.08V3.513h12.476c3.474 0 5.749 2.058 5.749 5.054 0 2.435-1.175 4.016-3.476 4.65l3.888 5.752h-4.18l-3.743-5.476h-7.009v5.477zm0-8.447h8.368c1.576 0 2.491-.78 2.491-2.057 0-1.172-.93-1.985-2.504-1.985h-8.354v4.042z"/><path fill="#9C0" d="M27.17 7.08l3.261-5.647 3.604 2.08-3.261 5.649h6.521v4.161h-6.521l3.261 5.647-3.604 2.082-3.261-5.649-2.403-4.161z"/><path fill="#63C" d="M27.17 7.08l-3.26-5.647-3.604 2.08 3.26 5.649h-6.522v4.161h6.522l-3.26 5.647 3.604 2.082 3.26-5.649 2.403-4.161z"/></svg>