<svg xmlns="http://www.w3.org/2000/svg" width="201" height="41"><g fill="none"><path fill="#43B049" d="M.7.69h43.96v39.33H.7z"/><path fill="#FFF" d="M29.56 31.53c5.88 0 10.24-1.28 10.24-11.78 0-8-2.92-11.13-9.05-11.13H5.31v3.27h7.47v19.64h5.09V11.87h11.29c3.46 0 5.1 1.78 5.1 7.92s-1.43 8.46-4.85 8.46h-4.95V13.06h-5.14v18.47h10.24z"/><path fill="#183129" d="M179.61 24.68v-2.15a3.74 3.74 0 0 1-3.87 2.48c-3.85 0-5.27-3-5.27-6.5 0-3.26 1.5-6.11 5.11-6.11a4.05 4.05 0 0 1 3.62 1.83V7.34h5.8v17.34h-5.39zm-1.73-8.72c-1.22 0-1.43 1.25-1.43 2.5s.21 2.61 1.47 2.61 1.43-1.34 1.43-2.47c.01-1.39-.18-2.64-1.47-2.64zM60.16 8.59h8.5l5.73 16.08h-6.44l-1.06-3.48h-5.24l-1 3.48h-6.13l5.64-16.08zm2.35 8.73h3.57l-1.75-5.27-1.82 5.27zm12.81-4.66h5.48v2.07a4.06 4.06 0 0 1 4.15-2.34c1.61 0 3.29.62 3.76 2.05.39-1.38 2.42-2.05 3.85-2.05 4.24 0 4.24 2.74 4.24 5.09v7.19H91v-6.91c0-.69 0-1.63-1-1.63s-1 .94-1 1.63v6.91h-5.8v-6.91c0-.69 0-1.63-1-1.63s-1 .94-1 1.63v6.91h-5.8v-12l-.08-.01zm28.63 7.4c.09 1.5 1.5 1.84 3.2 1.84a8.93 8.93 0 0 0 3.94-.76v3.11a18.51 18.51 0 0 1-5.41.69c-4.86 0-7.44-2.35-7.44-6.49 0-4.14 2.58-6.06 7.44-6.06 4.65 0 6.29 2.9 6.29 7v.71h-8l-.02-.04zm3-2.53c0-.92-.14-2.37-1.45-2.37s-1.63 1.43-1.56 2.37h3.01zm12-4.87v2.72c.69-1.7 1.84-3 3.66-3a3.74 3.74 0 0 1 .94.11v4.81a4 4 0 0 0-1.31-.18 3.08 3.08 0 0 0-3 3.18v4.35h-5.8v-12h5.51v.01zm12.15-1.26h-5.8v-4h5.8v4zm-5.8 1.26h5.8v12h-5.8v-12zm9.36 0V9.9l5.8-1.77v4.54h2.63v3.46h-2.63v3.4a1.32 1.32 0 0 0 1.27 1.57 4.15 4.15 0 0 0 1.36-.21v3.46a14 14 0 0 1-4 .62c-3 0-4.45-1.5-4.45-4.67v-4.18h-2.05v-3.46h2.07zm15.53 0v2.72c.69-1.7 1.85-3 3.66-3a3.73 3.73 0 0 1 .94.11v4.81a4 4 0 0 0-1.31-.18 3.09 3.09 0 0 0-3 3.18v4.35h-5.8v-12h5.44l.07.01zm6.51.42a15.54 15.54 0 0 1 5-.69c3.32 0 7.35.6 7.35 5v7.3h-5.39v-1.75a4.36 4.36 0 0 1-3.92 2c-2.23 0-4.4-1-4.4-3.52 0-3.69 3.31-4.42 6.2-4.42.8 0 1.73.12 2.26.16 0-1.54-1.61-1.73-3.06-1.73a9.36 9.36 0 0 0-4 1v-3.35h-.04zm7.07 6.31h-.58c-1.2 0-2.58.11-2.58 1.36a1.1 1.1 0 0 0 1.34 1.15 1.94 1.94 0 0 0 1.79-2.14v-.37h.03zm28.33.62c.09 1.5 1.5 1.84 3.2 1.84a9 9 0 0 0 3.94-.76v3.11a18.53 18.53 0 0 1-5.41.69c-4.86 0-7.44-2.35-7.44-6.49 0-4.14 2.58-6.06 7.44-6.06 4.65 0 6.29 2.9 6.29 7v.71h-8l-.02-.04zm3-2.53c0-.92-.14-2.37-1.45-2.37s-1.63 1.43-1.56 2.37h3.01z"/></g></svg>