<?xml version="1.0" encoding="UTF-8"?>
<svg width="62px" height="90px" viewBox="0 0 62 90" version="1.1" xmlns="http://www.w3.org/2000/svg" xmlns:xlink="http://www.w3.org/1999/xlink">
    <!-- Generator: sketchtool 52.2 (67145) - http://www.bohemiancoding.com/sketch -->
    <title>824C58AC-907A-4B44-8374-C67E7D0DD394</title>
    <desc>Created with sketchtool.</desc>
    <g id="Page-1" stroke="none" stroke-width="1" fill="none" fill-rule="evenodd">
        <g id="Home-old" transform="translate(-334.000000, -3097.000000)" fill-rule="nonzero">
            <g id="bank" transform="translate(334.000000, 3097.000000)">
                <polygon id="Shape" fill="#4398D1" points="0 9 52 9 52 76 0 76"></polygon>
                <polygon id="Shape" fill="#3E8CC7" points="42.7997652 9 6 76 52 76 52 9"></polygon>
                <path d="M0,83.0002871 C0,86.3136815 2.73903001,89 6.11744042,89 L45.8819741,89 C49.2603844,89 52,86.3136815 52,83.0002871 L52,77 L0,77 L0,83.0002871 Z" id="Shape" fill="#DADDDF"></path>
                <path d="M52,6 C52,2.68644724 49.2603844,0 45.8819741,0 L6.11744042,0 C2.73903001,0 0,2.68644724 0,6 L0,9 L52,9 L52,6 Z" id="Shape" fill="#DADDDF"></path>
                <polygon id="Shape" fill="#BDBDBD" points="24 81 27 81 27 84 24 84"></polygon>
                <path d="M39,23.7933192 L39,18.2805393 L25.4997129,15 L12,18.2805393 L12,23.7933192 L14.9999362,23.7933192 L14.9999362,31.0834067 L12,31.0834067 L12,34 L39,34 L39,31.0834067 L36.0000638,31.0834067 L36.0000638,23.7933192 L39,23.7933192 Z M26.999681,23.7933192 L26.999681,31.0834067 L23.9997448,31.0834067 L23.9997448,23.7933192 L26.999681,23.7933192 Z M17.9998724,23.7933192 L20.9998086,23.7933192 L20.9998086,31.0834067 L17.9998724,31.0834067 L17.9998724,23.7933192 Z M33.0001276,31.0834067 L30.0001914,31.0834067 L30.0001914,23.7933192 L33.0001276,23.7933192 L33.0001276,31.0834067 Z" id="Shape" fill="#5EB3D1"></path>
                <path d="M7,72 L7,43.0475635 C7,41.3639364 8.37933286,40 10.0832842,40 L40.9167158,40 C42.6200768,40 44,41.3639364 44,43.0475635 L44,72" id="Shape" fill="#87CED9"></path>
                <polygon id="Shape" fill="#5EB3D1" points="7 50 44 50 44 53 7 53"></polygon>
                <polygon id="Shape" fill="#5EB3D1" points="7 62 44 62 44 65 7 65"></polygon>
                <polygon id="Shape" fill="#5EB3D1" points="12 44 15 44 15 47 12 47"></polygon>
                <polygon id="Shape" fill="#5EB3D1" points="12 56 15 56 15 59 12 59"></polygon>
                <polygon id="Shape" fill="#5EB3D1" points="12 69 15 69 15 72 12 72"></polygon>
                <polygon id="Shape" fill="#5EB3D1" points="18 44 39 44 39 47 18 47"></polygon>
                <polygon id="Shape" fill="#5EB3D1" points="18 56 33 56 33 59 18 59"></polygon>
                <polygon id="Shape" fill="#5EB3D1" points="18 69 37 69 37 72 18 72"></polygon>
                <polygon id="Shape" fill="#5EB3D1" points="5 13 8 13 8 16 5 16"></polygon>
                <path d="M58.2020224,49.3607063 L51.2537568,41 L51.2537568,60.9063599 L38.2041597,47.8904601 C36.0500915,45.8111286 32.6129863,45.8662335 30.5282716,48.0147392 C28.4905761,50.1140022 28.4905761,53.4472639 30.5282716,55.5465269 L43.5772812,68.5624267 L42.3136397,70.7689685 C39.3690608,75.9060369 39.8715788,82.3163807 43.5772812,86.9375733 L43.5772812,90 L62,90 L62,59.442562 C62,55.7335319 60.6505483,52.1522982 58.2020224,49.3607063 Z" id="Shape" fill="#FFB782"></path>
                <path d="M55.5973408,66 C55.2255193,66 54.8671307,65.8527757 54.6049213,65.5889544 L50.3945259,61.3780199 C49.8555997,60.8208247 49.8706445,59.9326438 50.4283767,59.3937172 C50.9726762,58.8687609 51.8345283,58.8687609 52.3788279,59.3937172 L56.5897604,63.6041143 C57.1367465,64.1527124 57.1367465,65.0414308 56.5897604,65.5889544 C56.3254018,65.8527757 55.9691623,66 55.5973408,66 Z" id="Shape" fill="#F2A46F"></path>
            </g>
        </g>
    </g>
</svg>