<?xml version="1.0" encoding="UTF-8"?>
<svg width="20px" height="20px" viewBox="0 0 20 20" version="1.1" xmlns="http://www.w3.org/2000/svg" xmlns:xlink="http://www.w3.org/1999/xlink">
    <!-- Generator: sketchtool 52.2 (67145) - http://www.bohemiancoding.com/sketch -->
    <title>8117FABC-4811-4184-86B5-73A5CEFDC3C8</title>
    <desc>Created with sketchtool.</desc>
    <g id="Page-1" stroke="none" stroke-width="1" fill="none" fill-rule="evenodd">
        <g id="Home-old" transform="translate(-383.000000, -678.000000)" fill="#D8D8D8">
            <g id="Broker-Card" transform="translate(251.000000, 393.000000)">
                <g id="Group-2" transform="translate(98.000000, 285.000000)">
                    <path d="M44.0001745,8 L44.0001745,10 L46.0001745,10 C46.0001745,8.895 45.1051745,8 44.0001745,8 M44.0001745,4 L44.0001745,6 C46.2061745,6 48.0001745,7.794 48.0001745,10 L50.0001745,10 C50.0001745,6.686 47.3141745,4 44.0001745,4 M44.0001745,0 L44.0001745,2 C48.4111745,2 52.0001745,5.589 52.0001745,10 L54.0001745,10 C54.0001745,4.477 49.5231745,0 44.0001745,0 M48.6521745,18.234 C48.6411745,18.265 48.6401745,18.27 48.6521745,18.234 M48.1171745,15.578 C47.4221745,15.204 46.7191745,14.778 45.9921745,14.481 C44.5871745,13.908 44.6821745,15.602 43.6791745,16.151 C43.0271745,16.508 42.1071745,15.861 41.5381745,15.503 C40.5441745,14.877 39.6631745,14.053 38.9311745,13.1 C38.5561745,12.613 37.7281745,11.697 37.8301745,11.014 C37.9921745,9.93 39.2741745,9.876 38.9071745,8.55 C38.7111745,7.84 38.3601745,7.141 38.0971745,6.457 C37.7451745,5.54 37.6001745,4.953 36.5731745,5.003 C35.8311745,5.039 35.3391745,5.356 34.8831745,5.951 C33.6491745,7.558 33.8351745,9.725 34.6641745,11.488 C35.8381745,13.983 37.8501745,16.335 39.9991745,17.855 C41.4611745,18.889 43.3871745,19.828 45.1571745,19.987 C46.4531745,20.104 48.2661745,19.403 48.7301745,17.996 C48.6981745,18.094 48.6671745,18.189 48.6521745,18.234 C48.6631745,18.199 48.6871745,18.128 48.7301745,17.996 C48.7771745,17.854 48.8001745,17.783 48.8111745,17.751 C48.7971745,17.793 48.7651745,17.891 48.7311745,17.993 C49.1391745,16.753 49.1891745,16.155 48.1171745,15.578 M48.8111745,17.751 C48.8191745,17.727 48.8191745,17.725 48.8111745,17.751" id="call-[#191]"></path>
                </g>
            </g>
        </g>
    </g>
</svg>