<?xml version="1.0" encoding="UTF-8"?>
<svg width="80px" height="83px" viewBox="0 0 80 83" version="1.1" xmlns="http://www.w3.org/2000/svg" xmlns:xlink="http://www.w3.org/1999/xlink">
    <!-- Generator: sketchtool 52.2 (67145) - http://www.bohemiancoding.com/sketch -->
    <title>29B75D9C-CE53-4219-8AF9-D5BF4642B15F</title>
    <desc>Created with sketchtool.</desc>
    <g id="Page-1" stroke="none" stroke-width="1" fill="none" fill-rule="evenodd">
        <g id="Home-old" transform="translate(-320.000000, -2542.000000)" fill-rule="nonzero">
            <g id="money-exchange" transform="translate(320.000000, 2542.000000)">
                <polygon id="Shape" fill="#628A27" points="44 29 71 29 71 81 44 81"></polygon>
                <polygon id="Shape" fill="#6B962A" points="44 24 71 24 71 76 44 76"></polygon>
                <polygon id="Shape" fill="#88B337" points="44 18 71 18 71 70 44 70"></polygon>
                <polygon id="Shape" fill="#80A834" points="44 59.8573714 44 71 71 71 71 32"></polygon>
                <path d="M62.3330781,66 L51.6669219,66 C51.6669219,64.4532015 50.4736237,63.2002144 49,63.2002144 L49,26.8003216 C50.4736237,26.8003216 51.6669219,25.5473345 51.6669219,24 L62.3330781,24 C62.3330781,25.5473345 63.5263763,26.8003216 65,26.8003216 L65,63.2002144 C63.5263763,63.2002144 62.3330781,64.4532015 62.3330781,66 Z" id="Shape" fill="#6B962A"></path>
                <path d="M65,44 C65,40.1343443 61.4180629,37 56.9997448,37 C52.5819371,37 49,40.1343443 49,44 C49,47.8661917 52.5819371,51 56.9997448,51 C61.4180629,51 65,47.8661917 65,44 Z" id="Shape" fill="#88B337"></path>
                <polygon id="Shape" fill="#88B337" points="57 29 60 29 60 32 57 32"></polygon>
                <polygon id="Shape" fill="#628A27" points="8 18 35 18 35 70 8 70"></polygon>
                <polygon id="Shape" fill="#6B962A" points="8 12 35 12 35 64 8 64"></polygon>
                <polygon id="Shape" fill="#88B337" points="8 7 35 7 35 59 8 59"></polygon>
                <polygon id="Shape" fill="#80A834" points="8 48.8569905 8 60 35 60 35 21"></polygon>
                <path d="M16.6664965,12 L27.3335035,12 C27.3335035,13.5467984 28.5268398,14.7997856 30,14.7997856 L30,51.1996784 C28.5268398,51.1996784 27.3335035,52.4526655 27.3335035,54 L16.6664965,54 C16.6664965,52.4526655 15.4731601,51.1996784 14,51.1996784 L14,14.7997856 C15.4731601,14.7997856 16.6664965,13.5467984 16.6664965,12 Z" id="Shape" fill="#6B962A"></path>
                <path d="M30,33 C30,29.1338082 26.4184591,26 22,26 C17.5815409,26 14,29.1338082 14,33 C14,36.8656557 17.5815409,40 22,40 C26.4184591,40 30,36.8656557 30,33 Z" id="Shape" fill="#88B337"></path>
                <polygon id="Shape" fill="#88B337" points="21 46 24 46 24 49 21 49"></polygon>
                <polygon id="Shape" fill="#88B337" points="21 18 24 18 24 21 21 21"></polygon>
                <path d="M20.8482825,21.1365108 L11.1192969,11.2730215 C13.7892056,8.56620121 15.2886341,4.89504929 15.2886341,1.06686276 L15.2886341,0 L0,0 L0,17.8760227 C0,20.8656128 1.17154485,23.7332451 3.25647965,25.8470041 L8.33920659,31 L8.33920659,19.7275179 L15.2886341,26.7730215 C16.8247896,28.3298749 19.3126592,28.3298749 20.8482825,26.7730215 C22.3839058,25.2156286 22.3839058,22.6933641 20.8482825,21.1365108 Z" id="Shape" fill="#FFB782"></path>
                <path d="M7.74650712,20 C7.41419523,20 7.09436899,19.8684306 6.86002188,19.6326619 L4.35231577,17.1246789 C3.87065559,16.6272118 3.88458193,15.8334734 4.38353001,15.3518523 C4.86999232,14.8827159 5.63978419,14.8827159 6.12528612,15.3518523 L8.63299223,17.8598353 C9.12233592,18.3496195 9.12233592,19.1433579 8.63299223,19.6326619 C8.39720456,19.8684306 8.078819,20 7.74650712,20 Z" id="Shape" fill="#F2A46F"></path>
                <path d="M59.1520958,61.8634892 L68.8809049,71.7269785 C66.2110446,74.4337988 64.7111112,78.1049507 64.7111112,81.9331372 L64.7111112,83 L80,83 L80,65.1239773 C80,62.1343872 78.8279442,59.2667549 76.7430473,57.1529959 L71.6604126,52 L71.6604126,63.2724821 L64.7111112,56.2269785 C63.1755156,54.6701251 60.6876913,54.6701251 59.1520958,56.2269785 C57.6159681,57.7843714 57.6159681,60.3066359 59.1520958,61.8634892 Z" id="Shape" fill="#FFB782"></path>
                <path d="M73.7468793,67 C73.4145706,67 73.0947475,66.8684306 72.8604027,66.6326619 L70.3522404,64.1246789 C69.8710651,63.6272118 69.884511,62.8334734 70.3824939,62.3518523 C70.8689516,61.8827159 71.638736,61.8827159 72.1256739,62.3518523 L74.633356,64.8593552 C75.1222147,65.3496195 75.1222147,66.1433579 74.633356,66.6326619 C74.3975705,66.8684306 74.079188,67 73.7468793,67 Z" id="Shape" fill="#F2A46F"></path>
            </g>
        </g>
    </g>
</svg>