<svg xmlns="http://www.w3.org/2000/svg" width="80" height="83">
    <g fill="none">
        <path fill="#628A27" d="M44 29h27v52H44z"/>
        <path fill="#6B962A" d="M44 24h27v52H44z"/>
        <path fill="#88B337" d="M44 18h27v52H44z"/>
        <path fill="#80A834" d="M44 59.857V71h27V32z"/>
        <path fill="#6B962A" d="M62.333 66H51.667c0-1.547-1.193-2.8-2.667-2.8V26.8c1.474 0 2.667-1.253 2.667-2.8h10.666c0 1.547 1.193 2.8 2.667 2.8v36.4c-1.474 0-2.667 1.253-2.667 2.8z"/>
        <path fill="#88B337" d="M65 44c0-3.866-3.582-7-8-7s-8 3.134-8 7 3.582 7 8 7 8-3.134 8-7zm-8-15h3v3h-3z"/>
        <path fill="#628A27" d="M8 18h27v52H8z"/>
        <path fill="#6B962A" d="M8 12h27v52H8z"/>
        <path fill="#88B337" d="M8 7h27v52H8z"/>
        <path fill="#80A834" d="M8 48.857V60h27V21z"/>
        <path fill="#6B962A" d="M16.666 12h10.668c0 1.547 1.193 2.8 2.666 2.8v36.4c-1.473 0-2.666 1.253-2.666 2.8H16.666c0-1.547-1.193-2.8-2.666-2.8V14.8c1.473 0 2.666-1.253 2.666-2.8z"/>
        <path fill="#88B337" d="M30 33c0-3.866-3.582-7-8-7s-8 3.134-8 7 3.582 7 8 7 8-3.134 8-7zm-9 13h3v3h-3zm0-28h3v3h-3z"/>
        <path fill="#FFB782" d="M20.848 21.137l-9.729-9.864a14.535 14.535 0 0 0 4.17-10.206V0H0v17.876c0 2.99 1.172 5.857 3.256 7.971L8.34 31V19.728l6.95 7.045a3.893 3.893 0 0 0 5.56 0 4.024 4.024 0 0 0 0-5.636z"/>
        <path fill="#F2A46F" d="M7.747 20a1.25 1.25 0 0 1-.887-.367l-2.508-2.508a1.254 1.254 0 1 1 1.773-1.773l2.508 2.508A1.254 1.254 0 0 1 7.747 20z"/>
        <path fill="#FFB782" d="M59.152 61.863l9.729 9.864a14.535 14.535 0 0 0-4.17 10.206V83H80V65.124c0-2.99-1.172-5.857-3.257-7.971L71.66 52v11.272l-6.949-7.045a3.892 3.892 0 0 0-5.559 0 4.023 4.023 0 0 0 0 5.636z"/>
        <path fill="#F2A46F" d="M73.747 67a1.25 1.25 0 0 1-.887-.367l-2.508-2.508a1.254 1.254 0 0 1 1.774-1.773l2.507 2.507A1.255 1.255 0 0 1 73.747 67z"/>
    </g>
</svg>
