<?xml version="1.0" encoding="UTF-8"?>
<svg width="20px" height="20px" viewBox="0 0 20 20" version="1.1" xmlns="http://www.w3.org/2000/svg" xmlns:xlink="http://www.w3.org/1999/xlink">
    <!-- Generator: sketchtool 52.2 (67145) - http://www.bohemiancoding.com/sketch -->
    <title>58A9A8AE-AED5-462D-BD48-DB138717756F</title>
    <desc>Created with sketchtool.</desc>
    <g id="Page-1" stroke="none" stroke-width="1" fill="none" fill-rule="evenodd">
        <g id="Home-old" transform="translate(-446.000000, -678.000000)" fill="#D8D8D8">
            <g id="Broker-Card" transform="translate(251.000000, 393.000000)">
                <g id="Group-2" transform="translate(98.000000, 285.000000)">
                    <path d="M113.872728,9.94 C113.872728,11.045 112.977728,11.94 111.872728,11.94 C110.767728,11.94 109.872728,11.045 109.872728,9.94 C109.872728,8.835 110.767728,7.94 111.872728,7.94 C112.977728,7.94 113.872728,8.835 113.872728,9.94 M108.872728,9.94 C108.872728,11.045 107.977728,11.94 106.872728,11.94 C105.767728,11.94 104.872728,11.045 104.872728,9.94 C104.872728,8.835 105.767728,7.94 106.872728,7.94 C107.977728,7.94 108.872728,8.835 108.872728,9.94 M103.872728,9.94 C103.872728,11.045 102.977728,11.94 101.872728,11.94 C100.767728,11.94 99.8727278,11.045 99.8727278,9.94 C99.8727278,8.835 100.767728,7.94 101.872728,7.94 C102.977728,7.94 103.872728,8.835 103.872728,9.94 M114.441728,18 C114.441728,18 111.825728,17.257 110.018728,17.257 C108.544728,17.257 108.208728,17.518 106.957728,17.518 C102.877728,17.518 99.5817278,14.508 99.0757278,10.851 C98.4037278,5.997 102.268728,1.999 106.957728,2 C110.900728,2 114.002728,4.703 114.732728,8.083 C115.000728,9.318 114.973728,10.544 114.654728,11.726 C114.274728,13.131 114.291728,14.711 114.703728,16.294 C114.914728,17.103 115.302728,18 114.441728,18 M116.917728,16.859 C116.917728,16.859 116.640728,15.794 116.639728,15.79 C116.336728,14.63 116.271728,13.405 116.584728,12.248 C116.970728,10.822 117.035728,9.268 116.687728,7.66 C115.767728,3.405 111.861728,0 106.957728,0 C100.999728,-0.001 96.2647278,5.127 97.0947278,11.125 C97.7367278,15.766 101.870728,19.518 106.957728,19.518 C108.426728,19.518 108.722728,19.257 110.019728,19.257 C111.583728,19.257 113.795728,19.919 113.795728,19.919 C115.683728,20.392 117.399728,18.71 116.917728,16.859" id="message_three_points-[#1560]"></path>
                </g>
            </g>
        </g>
    </g>
</svg>