<?xml version="1.0" encoding="UTF-8"?>
<svg width="18px" height="14px" viewBox="0 0 18 14" version="1.1" xmlns="http://www.w3.org/2000/svg" xmlns:xlink="http://www.w3.org/1999/xlink">
    <defs>
        <linearGradient x1="50%" y1="0%" x2="50%" y2="100%" id="linearGradient-1">
            <stop stop-color="#399DD5" offset="0%"></stop>
            <stop stop-color="#4078AA" offset="100%"></stop>
        </linearGradient>
    </defs>
    <g id="Page-1" stroke="none" stroke-width="1" fill="none" fill-rule="evenodd">
        <g id="Home-old" transform="translate(-416.000000, -1731.000000)" stroke="url(#linearGradient-1)" stroke-width="2">
            <g id="Broker-Card" transform="translate(251.000000, 1443.000000)">
                <g id="Group-2" transform="translate(98.000000, 285.000000)">
                    <g id="Group" transform="translate(68.000000, 4.000000)">
                        <path d="M14,12 L2,12 C0.8954305,12 0,11.1045695 0,10 L0,2 C0,0.8954305 0.8954305,0 2,0 L14,0 C15.1045695,0 16,0.8954305 16,2 L16,10 C16,11.1045695 15.1045695,12 14,12 Z" id="Path"></path>
                        <path d="M14,-2.66453526e-15 L2,-2.66453526e-15 C0.8954305,-2.66453526e-15 -8.8817842e-16,0.8954305 -8.8817842e-16,2 L-8.8817842e-16,2.83 L6.93,7.16 C7.57854159,7.56533962 8.40145841,7.56533962 9.05,7.16 L15.99,2.83 L15.99,2 C15.9900138,0.899323988 15.1006623,0.00550337998 14,-2.66453526e-15 Z" id="Path"></path>
                    </g>
                </g>
            </g>
        </g>
    </g>
</svg>