<?xml version="1.0" encoding="UTF-8"?>
<svg width="88px" height="88px" viewBox="0 0 88 88" version="1.1" xmlns="http://www.w3.org/2000/svg" xmlns:xlink="http://www.w3.org/1999/xlink">
    <!-- Generator: sketchtool 52.2 (67145) - http://www.bohemiancoding.com/sketch -->
    <title>B73D8412-2FB3-46C1-9055-5FB6470B46F4</title>
    <desc>Created with sketchtool.</desc>
    <g id="Page-1" stroke="none" stroke-width="1" fill="none" fill-rule="evenodd">
        <g id="Home-old" transform="translate(-317.000000, -2912.000000)" fill-rule="nonzero">
            <g id="profit-(1)" transform="translate(317.000000, 2912.000000)">
                <polygon id="Shape" fill="#DADDDF" points="62.9373401 62.8888888 58.9998435 52 44.0001565 52 40.0626597 62.8888888 35 62.8888888 35 66 68 66 68 62.8888888"></polygon>
                <path d="M19.5625363,0 C17.0429267,0 15,2.06234021 15,4.60720586 L15,43 L88,43 L88,4.60720586 C88,2.06234021 85.9570733,0 83.4374637,0 L19.5625363,0 Z" id="Shape" fill="#87CED9"></path>
                <path d="M83.436546,0 L76.5916559,0 L34,43 L88,43 L88,4.60720586 C88,2.06234021 85.9566624,0 83.436546,0 Z" id="Shape" fill="#71C4D1"></path>
                <path d="M15,43 L15,47.9999999 C15,50.7618319 17.0429267,53 19.5625363,53 L83.4374637,53 C85.9570733,53 88,50.7618319 88,47.9999999 L88,43 L15,43 Z" id="Shape" fill="#DADDDF"></path>
                <polygon id="Shape" fill="#C1C7C9" points="59 55 57.9563713 52 44.0436287 52 43 55"></polygon>
                <polygon id="Shape" fill="#5EB3D1" points="23 5 26 5 26 8 23 8"></polygon>
                <polygon id="Shape" fill="#5EB3D1" points="29 5 32 5 32 8 29 8"></polygon>
                <polygon id="Shape" fill="#5EB3D1" points="35 5 38 5 38 8 35 8"></polygon>
                <polygon id="Shape" fill="#5EB3D1" points="29 35 81 35 81 38 29 38"></polygon>
                <polygon id="Shape" fill="#5EB3D1" points="35 27 38 27 38 32 35 32"></polygon>
                <polygon id="Shape" fill="#5EB3D1" points="41 26 44 26 44 32 41 32"></polygon>
                <polygon id="Shape" fill="#5EB3D1" points="47 24 50 24 50 32 47 32"></polygon>
                <polygon id="Shape" fill="#5EB3D1" points="53 18 56 18 56 32 53 32"></polygon>
                <polygon id="Shape" fill="#5EB3D1" points="59 21 62 21 62 32 59 32"></polygon>
                <polygon id="Shape" fill="#5EB3D1" points="65 12 68 12 68 31 65 31"></polygon>
                <polygon id="Shape" fill="#5EB3D1" points="72 15 75 15 75 31 72 31"></polygon>
                <polygon id="Shape" fill="#5EB3D1" points="77 8 80 8 80 32 77 32"></polygon>
                <path d="M54,80.5 C54,84.6423651 50.6417911,88 46.5,88 C42.3576349,88 39,84.6423651 39,80.5 C39,76.3582089 42.3576349,73 46.5,73 C50.6417911,73 54,76.3582089 54,80.5 Z" id="Shape" fill="#FDB62F"></path>
                <path d="M77,77.4999999 C77,81.642365 73.6423651,85 69.5,85 C65.3582089,85 62,81.642365 62,77.4999999 C62,73.358209 65.3582089,70 69.5,70 C73.6423651,70 77,73.358209 77,77.4999999 Z" id="Shape" fill="#FFA230"></path>
                <path d="M26,0 L24.4285715,0 C19.2211469,0 15,4.47633615 15,10 L16.5714285,10 C21.7794544,10 26,5.52302589 26,0 Z" id="Shape" fill="#6B962A"></path>
                <path d="M17.9999999,26 L15,26 C15,19.3728173 20.3731344,14 27.0000001,14 L30,14 C30,20.6271827 24.6274397,26 17.9999999,26 Z" id="Shape" fill="#6B962A"></path>
                <path d="M17.9999999,43 L15,43 C15,36.3731343 20.3731344,31 27.0000001,31 L30,31 C30,37.6268657 24.6274397,43 17.9999999,43 Z" id="Shape" fill="#6B962A"></path>
                <polygon id="Shape" fill="#6B962A" points="14 10 17 10 17 43 14 43"></polygon>
                <path d="M16,10 L14.4284854,10 C9.22077643,10 5,5.52302589 5,0 L6.57151444,0 C11.7792236,0 16,4.47633615 16,10 Z" id="Shape" fill="#88B337"></path>
                <path d="M0,14 L3.00011487,14 C9.62723411,14 15,19.3728173 15,26 L12.0004592,26 C5.37276589,26 0,20.6271827 0,14 Z" id="Shape" fill="#88B337"></path>
                <path d="M0,31 L3.00011487,31 C9.62723411,31 15,36.3731343 15,43 L12.0004592,43 C5.37276589,43 0,37.6268657 0,31 Z" id="Shape" fill="#88B337"></path>
                <polygon id="Shape" fill="#FDB62F" points="0 78 24 78 24 88 0 88"></polygon>
                <polygon id="Shape" fill="#FFA230" points="6 70 30 70 30 80 6 80"></polygon>
                <polygon id="Shape" fill="#FDB62F" points="0 61 24 61 24 71 0 71"></polygon>
                <polygon id="Shape" fill="#FFA230" points="3 52 27 52 27 62 3 62"></polygon>
                <polygon id="Shape" fill="#FDB62F" points="0 43 24 43 24 53 0 53"></polygon>
                <polygon id="Shape" fill="#FD7B2F" points="11 74 14 74 14 79 11 79"></polygon>
                <polygon id="Shape" fill="#FD7B2F" points="16 74 19 74 19 79 16 79"></polygon>
                <polygon id="Shape" fill="#FD7B2F" points="23 74 26 74 26 79 23 79"></polygon>
                <polygon id="Shape" fill="#FD7B2F" points="8 56 11 56 11 61 8 61"></polygon>
                <polygon id="Shape" fill="#FD7B2F" points="14 56 17 56 17 61 14 61"></polygon>
                <polygon id="Shape" fill="#FD7B2F" points="19 56 22 56 22 61 19 61"></polygon>
                <polygon id="Shape" fill="#FD7B2F" points="5 83 8 83 8 88 5 88"></polygon>
                <polygon id="Shape" fill="#FD7B2F" points="11 83 14 83 14 88 11 88"></polygon>
                <polygon id="Shape" fill="#FD7B2F" points="16 83 19 83 19 88 16 88"></polygon>
                <polygon id="Shape" fill="#FD7B2F" points="5 65 8 65 8 70 5 70"></polygon>
                <polygon id="Shape" fill="#FD7B2F" points="11 65 14 65 14 70 11 70"></polygon>
                <polygon id="Shape" fill="#FD7B2F" points="16 65 19 65 19 70 16 70"></polygon>
                <polygon id="Shape" fill="#FD7B2F" points="5 47 8 47 8 52 5 52"></polygon>
                <polygon id="Shape" fill="#FD7B2F" points="11 47 14 47 14 52 11 52"></polygon>
                <polygon id="Shape" fill="#FD7B2F" points="16 47 19 47 19 52 16 52"></polygon>
            </g>
        </g>
    </g>
</svg>