<svg xmlns="http://www.w3.org/2000/svg" width="161" height="110"><g fill="none"><rect width="161" height="110" fill="#B70016" rx="4"/><path fill="#FFF" d="M22.63 54.625h-2.543v7.95H15v-21.15h7.78c4.637 0 8.228 1.65 8.228 6.525s-3.965 6.675-8.378 6.675zm-.3-9.075h-2.243v5.025h2.169c1.945 0 3.665-.6 3.665-2.55 0-2.1-1.795-2.475-3.59-2.475zm9.276 4.2c1.72-1.65 4.19-2.475 6.583-2.475 5.012 0 6.807 2.475 6.807 7.875v7.5h-4.488V61h-.075c-.748 1.2-2.468 1.95-4.189 1.95-2.319 0-5.386-1.2-5.386-4.65 0-4.275 5.236-5.025 9.575-5.025v-.225c0-1.5-1.197-2.175-2.693-2.175-1.421 0-2.768.675-3.665 1.5l-2.469-2.625zm8.977 6.375h-.599c-2.169 0-4.563.3-4.563 2.025 0 1.125 1.122 1.5 2.095 1.5 1.945 0 3.067-1.2 3.067-3.075v-.45zM56.217 51.7c-.45-.15-.898-.15-1.272-.15-2.618 0-3.516 2.175-3.516 3.375v7.65h-4.862v-14.85h4.713V49.9h.074c.748-1.5 2.17-2.55 4.04-2.55.374 0 .823 0 1.047.15l-.224 4.2zm10.622.375c-.748-.75-1.945-1.35-3.067-1.35-.898 0-1.87.3-1.87 1.2 0 .825.822 1.05 2.692 1.5 2.245.525 4.713 1.65 4.713 4.575 0 3.75-3.291 5.1-6.358 5.1-2.394 0-4.937-.825-6.433-2.325l2.767-2.925c.898.975 2.17 1.65 3.666 1.65.823 0 1.795-.3 1.795-1.275 0-.9-.898-1.2-2.917-1.725-2.02-.45-4.339-1.5-4.339-4.35 0-3.525 3.366-5.025 6.134-5.025 2.17 0 4.488.75 5.984 2.1l-2.767 2.85zm13.614 10.5V54.55c0-1.65-.45-3.15-2.17-3.15s-2.618 1.425-2.618 3.15v8.025h-4.862V40h4.862v9.6h.075c.673-1.2 2.17-2.325 4.264-2.325 4.04 0 5.46 3.075 5.46 6.075v9.225h-5.011zm8.977-16.95c-1.572 0-2.769-1.2-2.769-2.7 0-1.425 1.197-2.7 2.768-2.7 1.571 0 2.768 1.2 2.768 2.7 0 1.575-1.272 2.7-2.768 2.7zm-2.47 16.95v-14.85h4.863v14.85H86.96zm15.934.45c-1.796 0-3.59-.75-4.488-2.025h-.075v8.85h-4.862V47.725h4.637v1.8h.075c.898-1.2 2.543-2.25 4.713-2.25 4.338 0 7.031 3.675 7.031 7.8 0 4.2-2.618 7.95-7.031 7.95zm-1.197-11.7c-2.17 0-3.59 1.95-3.59 3.825 0 1.95 1.346 3.825 3.59 3.825 2.319 0 3.516-1.95 3.516-3.825 0-1.95-1.197-3.825-3.516-3.825zM139 45.732c0-2.588-2.175-4.732-4.8-4.732-1.575 0-3 .74-3.825 1.923l-3.525 4.806-.75-.666-.075-.074c-.825-.813-2.025-1.257-3.225-1.257-2.625 0-4.8 2.145-4.8 4.733 0 1.33.6 2.588 1.5 3.475l8.7 8.06 9.9-13.532c.525-.74.9-1.7.9-2.736z"/></g></svg>