<svg width="62" height="90" xmlns="http://www.w3.org/2000/svg"><g fill="none"><path fill="#4398D1" d="M0 9h52v67H0z"/><path fill="#3E8CC7" d="M42.8 9L6 76h46V9z"/><path d="M0 83c0 3.314 2.739 6 6.117 6h39.765C49.26 89 52 86.314 52 83v-6H0v6zM52 6c0-3.314-2.74-6-6.118-6H6.117C2.74 0 0 2.686 0 6v3h52V6z" fill="#DADDDF"/><path fill="#BDBDBD" d="M24 81h3v3h-3z"/><path d="M39 23.793v-5.512L25.5 15 12 18.28v5.513h3v7.29h-3V34h27v-2.917h-3v-7.29h3zm-12 0v7.29h-3v-7.29h3zm-9 0h3v7.29h-3v-7.29zm15 7.29h-3v-7.29h3v7.29z" fill="#5EB3D1"/><path d="M7 72V43.048C7 41.364 8.38 40 10.083 40h30.834C42.62 40 44 41.364 44 43.048V72" fill="#87CED9"/><path fill="#5EB3D1" d="M7 50h37v3H7zm0 12h37v3H7zm5-18h3v3h-3zm0 12h3v3h-3zm0 13h3v3h-3zm6-25h21v3H18zm0 12h15v3H18zm0 13h19v3H18zM5 13h3v3H5z"/><path d="M58.202 49.36L51.254 41v19.906L38.204 47.89a5.439 5.439 0 0 0-7.676.125 5.404 5.404 0 0 0 0 7.532l13.05 13.015-1.264 2.207a14.395 14.395 0 0 0 1.263 16.169V90H62V59.443c0-3.71-1.35-7.29-3.798-10.082z" fill="#FFB782"/><path d="M55.597 66a1.4 1.4 0 0 1-.992-.411l-4.21-4.211a1.403 1.403 0 0 1 1.984-1.984l4.21 4.21A1.406 1.406 0 0 1 55.598 66z" fill="#F2A46F"/></g></svg>