<svg xmlns="http://www.w3.org/2000/svg" width="20" height="20"><path fill="#3C8ABE" d="M10 8v2h2a2 2 0 0 0-2-2m0-4v2c2.206 0 4 1.794 4 4h2a6 6 0 0 0-6-6m0-4v2c4.411 0 8 3.589 8 8h2c0-5.523-4.477-10-10-10m4.652 18.234c-.01.031-.012.036 0 0m-.535-2.656c-.695-.374-1.398-.8-2.125-1.097-1.405-.573-1.31 1.121-2.313 1.67-.652.357-1.572-.29-2.14-.648A10.102 10.102 0 0 1 4.93 13.1c-.375-.487-1.203-1.403-1.1-2.086.161-1.084 1.443-1.138 1.076-2.464-.196-.71-.547-1.409-.81-2.093-.352-.917-.497-1.504-1.524-1.454-.742.036-1.234.353-1.69.948C-.35 7.558-.165 9.725.664 11.488 1.838 13.983 3.85 16.335 6 17.855c1.462 1.034 3.388 1.973 5.158 2.132 1.296.117 3.11-.584 3.573-1.991l-.078.238.078-.238.081-.245-.08.242c.408-1.24.458-1.838-.614-2.415m.694 2.173c.008-.024.008-.026 0 0"/></svg>