<svg width="18" height="14" xmlns="http://www.w3.org/2000/svg"><defs><linearGradient x1="50%" y1="0%" x2="50%" y2="100%" id="a"><stop stop-color="#399DD5" offset="0%"/><stop stop-color="#4078AA" offset="100%"/></linearGradient></defs><g transform="translate(-416 -1731)" stroke="url(#a)" stroke-width="2" fill="none" fill-rule="evenodd"><path d="M431 1744h-12a2 2 0 0 1-2-2v-8a2 2 0 0 1 2-2h12a2 2 0 0 1 2 2v8a2 2 0 0 1-2 2z"/><path d="M431 1732h-12a2 2 0 0 0-2 2v.83l6.93 4.33a2 2 0 0 0 2.12 0l6.94-4.33v-.83a2 2 0 0 0-1.99-2z"/></g></svg>