<svg xmlns="http://www.w3.org/2000/svg" width="83" height="82"><g fill="none"><path fill="#FDB62F" d="M61 29.5C61 39.717 52.717 48 42.5 48S24 39.717 24 29.5 32.283 11 42.5 11 61 19.283 61 29.5z"/><path fill="#FFA230" d="M56 30c0 7.18-5.82 13-13 13s-13-5.82-13-13 5.82-13 13-13 13 5.82 13 13z"/><path fill="#FFB782" d="M75.56 58.265l-19.174 9.343h-3.499c2.706 0 4.899-2.256 4.899-5.038 0-2.782-2.193-5.037-4.899-5.037H35.393c-5.8-5.963-14.74-7.251-21.909-3.155l-.484.276V82h36.62c4.432 0 8.786-1.203 12.622-3.486L80.387 67.71c2.489-1.465 3.35-4.726 1.926-7.285-1.352-2.429-4.3-3.371-6.753-2.16z"/><path fill="#4398D1" d="M0 55h13v27H0z"/><path fill="#FD7B2F" d="M31.8 30H29c.009-7.728 6.272-13.991 14-14v2.8c-6.182.007-11.193 5.018-11.2 11.2zM42 44v-2.8c6.183-.007 11.193-5.018 11.2-11.2H56c-.008 7.728-6.272 13.991-14 14z"/><path fill="#FDB62F" d="M19.5 11A6.692 6.692 0 0 0 14 5.5 6.692 6.692 0 0 0 19.5 0 6.692 6.692 0 0 0 25 5.5a6.692 6.692 0 0 0-5.5 5.5z"/><path fill="#126099" d="M7 73a3 3 0 1 1-6 0 3 3 0 0 1 6 0z"/><path fill="#FDB62F" d="M69.5 47a6.692 6.692 0 0 0-5.5-5.5 6.692 6.692 0 0 0 5.5-5.5 6.692 6.692 0 0 0 5.5 5.5 6.692 6.692 0 0 0-5.5 5.5z"/><path fill="#FD7B2F" d="M43.875 28.084h-2.75c-.759 0-1.375-.635-1.375-1.418 0-.781.616-1.416 1.375-1.416h5.5v-2.834h-2.75V21h-2.75v1.416c-2.278 0-4.125 1.903-4.125 4.25 0 2.348 1.847 4.25 4.125 4.25h2.75c.76 0 1.375.635 1.375 1.418 0 .781-.616 1.416-1.375 1.416h-5.5v2.834h2.75V38h2.75v-1.416c2.278 0 4.125-1.903 4.125-4.25 0-2.348-1.847-4.25-4.125-4.25z"/><path fill="#F2A46F" d="M53.552 69H35.448c-.8 0-1.448-.672-1.448-1.5s.649-1.5 1.448-1.5h18.104c.8 0 1.448.672 1.448 1.5s-.649 1.5-1.448 1.5z"/></g></svg>