<svg xmlns="http://www.w3.org/2000/svg" width="88" height="88"><g fill="none"><path fill="#DADDDF" d="M62.937 62.889L59 52H44l-3.937 10.889H35V66h33v-3.111z"/><path fill="#87CED9" d="M19.563 0C17.043 0 15 2.062 15 4.607V43h73V4.607C88 2.062 85.957 0 83.437 0H19.563z"/><path fill="#71C4D1" d="M83.437 0h-6.845L34 43h54V4.607C88 2.062 85.957 0 83.437 0z"/><path fill="#DADDDF" d="M15 43v5c0 2.762 2.043 5 4.563 5h63.874C85.957 53 88 50.762 88 48v-5H15z"/><path fill="#C1C7C9" d="M59 55l-1.044-3H44.044L43 55z"/><path fill="#5EB3D1" d="M23 5h3v3h-3zm6 0h3v3h-3zm6 0h3v3h-3zm-6 30h52v3H29zm6-8h3v5h-3zm6-1h3v6h-3zm6-2h3v8h-3zm6-6h3v14h-3zm6 3h3v11h-3zm6-9h3v19h-3zm7 3h3v16h-3zm5-7h3v24h-3z"/><path fill="#FDB62F" d="M54 80.5a7.5 7.5 0 1 1-15 0 7.5 7.5 0 0 1 15 0z"/><path fill="#FFA230" d="M77 77.5a7.5 7.5 0 1 1-15 0 7.5 7.5 0 0 1 15 0z"/><path fill="#6B962A" d="M26 0h-1.571C19.22 0 15 4.476 15 10h1.571C21.78 10 26 5.523 26 0zm-8 26h-3c0-6.627 5.373-12 12-12h3c0 6.627-5.373 12-12 12zm0 17h-3c0-6.627 5.373-12 12-12h3c0 6.627-5.373 12-12 12z"/><path fill="#6B962A" d="M14 10h3v33h-3z"/><path fill="#88B337" d="M16 10h-1.572C9.221 10 5 5.523 5 0h1.572C11.779 0 16 4.476 16 10zM0 14h3c6.627 0 12 5.373 12 12h-3C5.373 26 0 20.627 0 14zm0 17h3c6.627 0 12 5.373 12 12h-3C5.373 43 0 37.627 0 31z"/><path fill="#FDB62F" d="M0 78h24v10H0z"/><path fill="#FFA230" d="M6 70h24v10H6z"/><path fill="#FDB62F" d="M0 61h24v10H0z"/><path fill="#FFA230" d="M3 52h24v10H3z"/><path fill="#FDB62F" d="M0 43h24v10H0z"/><path fill="#FD7B2F" d="M11 74h3v5h-3zm5 0h3v5h-3zm7 0h3v5h-3zM8 56h3v5H8zm6 0h3v5h-3zm5 0h3v5h-3zM5 83h3v5H5zm6 0h3v5h-3zm5 0h3v5h-3zM5 65h3v5H5zm6 0h3v5h-3zm5 0h3v5h-3zM5 47h3v5H5zm6 0h3v5h-3zm5 0h3v5h-3z"/></g></svg>